<?xml version="1.0" encoding="utf-8"?>
<!-- Generator: Adobe Illustrator 16.0.0, SVG Export Plug-In . SVG Version: 6.00 Build 0)  -->
<!DOCTYPE svg PUBLIC "-//W3C//DTD SVG 1.1//EN" "http://www.w3.org/Graphics/SVG/1.1/DTD/svg11.dtd">
<svg version="1.1" id="Layer_1" xmlns="http://www.w3.org/2000/svg" xmlns:xlink="http://www.w3.org/1999/xlink" x="0px" y="0px"
	 width="720px" height="340px" viewBox="140 77.67 720 340" enable-background="new 140 77.67 720 340" xml:space="preserve">
<g transform="translate(-316.74 129.12)">
	<path d="M760.901,114.8l-16.426-23.484V114.8h-16.998V60.755h16.998v22.853l16.876-22.703h20.131l-20.691,25.496l21.012,28.399
		H760.901z"/>
	<path fill="#01FE83" d="M970.571,185.882c5.501,0,9.96-4.409,9.96-9.851c0-5.438-4.459-9.85-9.96-9.85s-9.96,4.411-9.96,9.85
		C960.611,181.473,965.07,185.882,970.571,185.882z"/>
	<path fill="#01FE83" d="M797.158,52.588c5.5,0,9.96-4.411,9.96-9.851s-4.459-9.85-9.96-9.85s-9.96,4.41-9.96,9.85
		S791.658,52.588,797.158,52.588z"/>
	<g>
		<path d="M805.664,60.754h-16.997v54.044h16.997V60.754z"/>
		<path d="M788.337,157.814c0-16.105,9.95-28.398,25.605-28.398c7.829,0,13.975,3.693,16.888,9.169v-7.719h16.998v53.896H830.83
			v-7.607c-2.913,5.364-9.619,9.059-17.107,9.059C797.626,186.223,788.337,174.028,788.337,157.814L788.337,157.814z
			 M831.501,157.814c0-7.718-4.365-14.095-12.863-14.095c-7.938,0-12.862,5.927-12.862,14.095c0,8.157,4.915,14.204,12.862,14.204
			C827.145,172.018,831.501,165.641,831.501,157.814z"/>
		<path d="M857.845,130.865h17.105v11.292c1.902-8.048,8.279-12.184,14.875-12.184c2.013,0,3.135,0.11,4.476,0.45l-0.09,15.867
			c-2.013-0.23-2.934-0.33-5.056-0.33c-9.279,0-14.205,6.035-14.205,17.997v20.802h-17.107L857.845,130.865z"/>
		<path d="M897.763,157.814c0-17.668,11.521-28.398,29.069-28.398c16.777,0,28.179,10.4,28.179,25.605
			c0,2.793-0.11,4.475-0.451,7.487H914.75c0.331,7.048,5.036,10.852,12.635,10.852c5.254,0,8.607-1.452,10.06-4.806h16.777
			c-1.672,10.621-12.522,17.668-26.837,17.668c-18.328,0-29.619-10.4-29.619-28.408H897.763z M938.135,151.887
			c-0.11-7.157-4.135-10.961-11.401-10.961c-7.378,0-11.852,4.365-11.962,10.961H938.135z"/>
		<path d="M832.644,98.754V60.755h-17.108V114.8h41.512V98.754H832.644z"/>
		<path d="M883.431,98.754V60.755h-17.107V114.8h41.513V98.754H883.431z"/>
		<path d="M764.75,130.846v19.409h-20.501v-19.409h-16.767V184.9h16.767v-19.148h20.501V184.9h16.777v-54.054H764.75z"/>
		<path d="M706.381,152.759l-10.451-2.895c-3.534-1.05-4.755-2.603-4.755-4.794c0-2.393,1.882-3.804,4.315-4.085
			c3.533-0.41,6.266,1.122,6.266,4.936v0.25h17.978v-0.25h-0.01c0-10.761-9.099-16.697-24.294-16.697
			c-13.853,0-23.013,6.728-23.013,16.928c0,8.178,4.915,13.673,13.513,15.796l10.781,2.703c3.203,1.011,4.494,2.582,4.484,5.045
			c-0.01,2.692-2.713,4.213-5.476,4.344c-4.004,0.181-6.917-1.991-7.138-5.444h-17.597c0.26,10.31,10.35,17.558,25.456,17.558
			c14.294,0,23.573-6.607,23.573-17.819c-0.01-8.179-5.146-13.333-13.633-15.576L706.381,152.759z"/>
		<path d="M706.381,82.797l-10.451-2.893c-3.534-1.051-4.755-2.603-4.755-4.795c0-2.393,1.882-3.804,4.315-4.084
			c3.533-0.411,6.266,1.121,6.266,4.935v0.25h17.978v-0.25h-0.01c0-10.761-9.099-16.697-24.294-16.697
			c-13.853,0-23.013,6.727-23.013,16.927c0,8.179,4.915,13.674,13.513,15.796l10.781,2.703c3.203,1.011,4.494,2.583,4.484,5.045
			c-0.01,2.692-2.713,4.214-5.476,4.344c-4.004,0.18-6.917-1.992-7.138-5.445h-17.597c0.26,10.311,10.35,17.557,25.456,17.557
			c14.294,0,23.573-6.606,23.573-17.818C720.005,90.194,714.869,85.04,706.381,82.797L706.381,82.797z"/>
	</g>
</g>
</svg>
